# xmcd
#
# Track frame offsets:
#	150
#	22965
#	48720
#	65775
#	82598
#	103613
#	118088
#	133013
#	147556
#	163299
#	181329
#
# Disc length: 2682 seconds
#
# Revision: 0
# Processed by: cddbd v1.5.2PL0 Copyright (c) Steve Scherf et al.
# Submitted via: audiograbber 1.83.01
#
DISCID=9d0a780b
DTITLE=Nitty Gritty Dirt Band - Twenty Years Of Dirt - The Best Of The Nitty Gr
DTITLE=itty Dirt Band
DYEAR=1989
DGENRE=Country
TTITLE0=Mr. Bojangles
TTITLE1=Ripplin' Waters
TTITLE2=American Dream
TTITLE3=Make A Little Magic
TTITLE4=Fire In The Sky
TTITLE5=Dance Little Jean
TTITLE6=Long Hard Road (The Sharecropper's Dream)
TTITLE7=High Horse
TTITLE8=Modern Day Romance
TTITLE9=Partners, Brothers and Friends
TTITLE10=Stand a Little Rain
EXTD=
EXTT0=
EXTT1=
EXTT2=
EXTT3=
EXTT4=
EXTT5=
EXTT6=
EXTT7=
EXTT8=
EXTT9=
EXTT10=
PLAYORDER=
